# xmcd
#
# Track frame offsets:
#  150
#  19275
#  38550
#  58875
#
# Disc length: 1054 seconds
#
# Revision: 0
# Processed by: cddbd v1.5.1PL2 Copyright (c) Steve Scherf et al.
# Submitted via: Collectorz.com_Music_Collector 6.9
#
DISCID=2e041c04
DTITLE=Avant - Separated/My First Love
DYEAR=2001
DGENRE=0 R&B - R&B
TTITLE0=Separated [Album Version]
TTITLE1=Separated [Instrumental]
TTITLE2=Avant - Keke Wyatt - My First Love [Album Version]
TTITLE3=My First Love [Instrumental]
EXTD=
EXTT0=
EXTT1=
EXTT2=
EXTT3=
PLAYORDER=
